<svg xmlns="http://www.w3.org/2000/svg" viewBox="0 0 585.6 445.5"><g data-name="Layer 2"><g data-name="Layer 1"><path d="M536 343a110 110 0 00-11 13l11 27a24 24 0 011-2c4-8 10-14 17-20 4 12-4 25-14 30l9 22c10-2 19-7 27-14l-29-66z" fill="#40ae49"/><path d="M444 295c1-7 0-15-5-20s-10-8-18-8l20 45a79 79 0 003-17z" fill="#00a896"/><path d="M523 280a19 19 0 001-5 42 42 0 0116-29l14 32-1 3a9 9 0 00-1 8v1c4 9 24 47 30 63a61 61 0 014 24c-1 9-3 17-10 22" fill="#81bc41"/><path d="M392 347v-1z" fill="#312a7e"/><path d="M52 230l-16 24-4 4 10 23 21-27zM34 189l-22-49a429 429 0 00-9 52l26 59a570 570 0 015-62zM79 319l-13 14 9 23a260 260 0 0122-25l-9-20a107 107 0 00-9 8zM109 390c2 15 13 26 27 30l-26-59a127 127 0 00-1 29z" fill="#ed7623"/><path d="M62 215l-10 15 11 25 20-27-11-26-10 13zM139 402c-5-3-5-9-3-30l3-18-25-55a27 27 0 00-12 3 85 85 0 00-14 9l9 20 7-7c3-2 9-9 14-10l1 1-3 14-5 24-1 8 26 59a53 53 0 007 2c7 1 17-1 24-5l-11-24c-8 7-15 10-17 9zM44 138L25 97a344 344 0 00-13 43l22 49a510 510 0 0110-51z" fill="#e02726"/><path d="M32 297l11-16-11-23-3 4v-10L3 192v3c-2 20-3 42-3 63l34 76-2-37zM45 359l11 26a222 222 0 0119-29l-9-23a273 273 0 00-21 26z" fill="#f5a81c"/><path d="M40 366l-4 6v-7l-2-31-34-76a1105 1105 0 003 78l41 95c-1-8 0-16 3-23a102 102 0 014-12l5-11-11-26z" fill="#ffcd00"/><path d="M14 431c1 3 2 6 5 8 5 4 12 7 19 7s8-2 7-9v-4a26 26 0 01-1-3L3 337c1 23 6 66 11 95z" fill="#fcdc00"/><path d="M138 135a260 260 0 0015-39l-17-39a234 234 0 01-11 48zM248 384l11 25a32 32 0 003-2l19-18 1-1-13-30-21 26zM239 319a7 7 0 00-3-7 26 26 0 00-15-5 10 10 0 00-6 1l17 40 3-13 4-16zM118 17l-7-16a55 55 0 00-18 6 92 92 0 00-9 6l9 20c8-8 16-13 25-16z" fill="#8d1d59"/><path d="M317 395c-2-1-4-5-4-11l-25-54a317 317 0 01-19 28l13 30 3-3 3 4c3 8 12 16 20 19a80 80 0 0017 4l-8-17zM132 14c4 0 7 18 4 43l17 39a158 158 0 006-29c1-14 0-25-1-33l-10-22c-6-7-13-9-18-11a45 45 0 00-19 0l7 16a46 46 0 0114-3z" fill="#9a268d"/><path d="M93 33l-9-20a104 104 0 00-16 14l-6 7 11 26a132 132 0 0120-27zM238 394c-2 2-5 1-6-2-5-13-3-30 0-44l-17-40a12 12 0 00-2 3l-8 11-10 14 34 77c10 3 21 2 30-4l-11-25a92 92 0 01-10 10zM122 113l-13 29 12 26c6-10 12-21 17-33l-13-30-3 8z" fill="#e81d76"/><path d="M73 60L62 34a244 244 0 00-20 28l15 33a237 237 0 0116-35zM91 174l11 25 19-31-12-26a288 288 0 01-18 32zM176 366l12 27 9-12a46 46 0 013-4l3 12c1 6 5 12 10 17a44 44 0 0016 7l-34-77-19 30z" fill="#cc1f41"/><path d="M72 202l11 26 9-14 10-15-11-25-19 28zM57 95L42 62a453 453 0 00-17 35l19 41a381 381 0 0113-43zM143 318c0-7-4-12-11-16-5-3-11-4-18-3l25 55 2-17a168 168 0 002-19zM168 379a86 86 0 01-12 14l11 24 2-2a119 119 0 0013-14l6-8-12-27-8 13z" fill="#b3282d"/><path d="M420 394a35 35 0 01-6 2l8 18a45 45 0 0023-6 52 52 0 005-3l-10-22a133 133 0 01-20 11zM424 346l-12-27c-7 11-14 22-20 28l11 24 1-1a180 180 0 0020-24zM403 299l-9-21c-10 11-14 18-19 29l17 39c0-16 4-34 11-47z" fill="#457bbe"/><path d="M424 280c2 10-4 25-12 39l12 27a210 210 0 0012-21 77 77 0 005-13l-20-45c-9-1-19 3-26 10l-1 1 9 21c6-11 13-19 21-19zM440 383l10 22a203 203 0 0025-17l-12-26a130 130 0 01-23 21z" fill="#43b5e3"/><path d="M409 397c-3 1-5-1-7-4a54 54 0 01-6-15l7-7-11-24v-1l-17-39-1 3c-7 14-9 35-7 51l17 40a50 50 0 0010 7 68 68 0 0028 6l-8-18z" fill="#443bbc"/><path d="M322 322c2-5 1-7-3-10a25 25 0 00-8-4l9 20 2-6zM367 369c-5 5-14 11-22 16l10 22a91 91 0 0017-9l5-4a30 30 0 007 7l-17-40v8z" fill="#4e2d96"/><path d="M148 12l10 22c-2-11-6-18-10-22zM313 356a208 208 0 017-28l-9-20a24 24 0 00-5 0c-4-1-6 1-8 4l-9 16-1 2 25 54c-2-9-1-22 0-28zM317 395l8 17a72 72 0 0018-1 72 72 0 0012-4l-10-22c-11 7-23 12-28 10z" fill="#803d96"/><path d="M567 256c1-3 1-5-1-6a21 21 0 00-6-5c-5-2-11-5-16-1l-4 2 14 32 13-22z" fill="#ccdb2a"/><path d="M537 311l-14-31a11 11 0 01-2 3l-16 26-1 1 13 30 16-24 4-5z" fill="#40ae49"/><path d="M536 393a17 17 0 010-10l-11-27-7 9a49 49 0 00-6 21c-1 9 1 16 8 21a38 38 0 005 3 41 41 0 0025 3l-10-22a31 31 0 01-4 2zM484 338l13 28 20-26-13-30-20 28z" fill="#008345"/><path d="M464 362l-1 1 12 25 15-14 7-8-13-28-20 24z" fill="#00a896"/></g></g></svg>